<?xml version="1.0" encoding="UTF-8"?>
<svg xmlns="http://www.w3.org/2000/svg" width="1600" height="710" viewBox="0 0 1600 710">
<rect width="100%" height="100%" fill="#f7f7f3"/>
<text x="20" y="30" font-family="monospace" font-size="24" fill="#111">xv6 lock contention timeline</text>
<text x="20" y="54" font-family="monospace" font-size="14" fill="#444">light bars show waiting time; solid bars show time spent inside the critical section</text>
<text x="20" y="74" font-family="monospace" font-size="12" fill="#555">lock vizlock; window size: last 90 event(s), span 12M</text>
<rect x="20" y="86" width="1560" height="10" rx="4" fill="#d9dde1"/>
<text x="20" y="84" font-family="monospace" font-size="12" fill="#555">window start 2M end 14M</text>
<line x1="280" y1="104" x2="280" y2="682" stroke="#c9c9bf" stroke-width="1"/>
<text x="282" y="100" font-family="monospace" font-size="10" fill="#555">0</text>
<line x1="410" y1="104" x2="410" y2="682" stroke="#c9c9bf" stroke-width="1"/>
<text x="412" y="100" font-family="monospace" font-size="10" fill="#555">1M</text>
<line x1="540" y1="104" x2="540" y2="682" stroke="#c9c9bf" stroke-width="1"/>
<text x="542" y="100" font-family="monospace" font-size="10" fill="#555">2M</text>
<line x1="670" y1="104" x2="670" y2="682" stroke="#c9c9bf" stroke-width="1"/>
<text x="672" y="100" font-family="monospace" font-size="10" fill="#555">3M</text>
<line x1="800" y1="104" x2="800" y2="682" stroke="#c9c9bf" stroke-width="1"/>
<text x="802" y="100" font-family="monospace" font-size="10" fill="#555">4M</text>
<line x1="930" y1="104" x2="930" y2="682" stroke="#c9c9bf" stroke-width="1"/>
<text x="932" y="100" font-family="monospace" font-size="10" fill="#555">6M</text>
<line x1="1060" y1="104" x2="1060" y2="682" stroke="#c9c9bf" stroke-width="1"/>
<text x="1062" y="100" font-family="monospace" font-size="10" fill="#555">7M</text>
<line x1="1190" y1="104" x2="1190" y2="682" stroke="#c9c9bf" stroke-width="1"/>
<text x="1192" y="100" font-family="monospace" font-size="10" fill="#555">8M</text>
<line x1="1320" y1="104" x2="1320" y2="682" stroke="#c9c9bf" stroke-width="1"/>
<text x="1322" y="100" font-family="monospace" font-size="10" fill="#555">9M</text>
<line x1="1450" y1="104" x2="1450" y2="682" stroke="#c9c9bf" stroke-width="1"/>
<text x="1452" y="100" font-family="monospace" font-size="10" fill="#555">10M</text>
<line x1="1580" y1="104" x2="1580" y2="682" stroke="#c9c9bf" stroke-width="1"/>
<text x="1582" y="100" font-family="monospace" font-size="10" fill="#555">12M</text>
<rect x="20" y="112" width="248" height="30" rx="8" fill="#ffffff" stroke="#d9d9d0" stroke-width="1"/>
<rect x="28" y="121" width="10" height="10" rx="2" fill="#9a99ad" stroke="#333" stroke-width="0.6"/>
<text x="44" y="128" font-family="monospace" font-size="12" fill="#111">PID 7 lockwork</text>
<text x="44" y="141" font-family="monospace" font-size="10" fill="#555">wait 771 hold 180k</text>
<rect x="280" y="119" width="3" height="20" rx="5" fill="#9a99ad" fill-opacity="0.28" stroke="#9a99ad" stroke-width="0.8" stroke-dasharray="4 2"/>
<rect x="496" y="119" width="3" height="20" rx="5" fill="#9a99ad" fill-opacity="0.28" stroke="#9a99ad" stroke-width="0.8" stroke-dasharray="4 2"/>
<rect x="280" y="119" width="12" height="20" rx="5" fill="#9a99ad" fill-opacity="0.92" stroke="#333" stroke-width="0.8"/>
<rect x="496" y="119" width="7" height="20" rx="5" fill="#9a99ad" fill-opacity="0.92" stroke="#333" stroke-width="0.8"/>
<rect x="20" y="146" width="248" height="30" rx="8" fill="#ffffff" stroke="#d9d9d0" stroke-width="1"/>
<rect x="28" y="155" width="10" height="10" rx="2" fill="#a4cbc5" stroke="#333" stroke-width="0.6"/>
<text x="44" y="162" font-family="monospace" font-size="12" fill="#111">PID 8 lockwork</text>
<text x="44" y="175" font-family="monospace" font-size="10" fill="#555">wait 81 hold 230k</text>
<rect x="389" y="153" width="3" height="20" rx="5" fill="#a4cbc5" fill-opacity="0.28" stroke="#a4cbc5" stroke-width="0.8" stroke-dasharray="4 2"/>
<rect x="712" y="153" width="3" height="20" rx="5" fill="#a4cbc5" fill-opacity="0.28" stroke="#a4cbc5" stroke-width="0.8" stroke-dasharray="4 2"/>
<rect x="389" y="153" width="16" height="20" rx="5" fill="#a4cbc5" fill-opacity="0.92" stroke="#333" stroke-width="0.8"/>
<rect x="712" y="153" width="9" height="20" rx="5" fill="#a4cbc5" fill-opacity="0.92" stroke="#333" stroke-width="0.8"/>
<rect x="20" y="180" width="248" height="30" rx="8" fill="#ffffff" stroke="#d9d9d0" stroke-width="1"/>
<rect x="28" y="189" width="10" height="10" rx="2" fill="#788486" stroke="#333" stroke-width="0.6"/>
<text x="44" y="196" font-family="monospace" font-size="12" fill="#111">PID 9 lockwork</text>
<text x="44" y="209" font-family="monospace" font-size="10" fill="#555">wait 59k hold 240k</text>
<rect x="496" y="187" width="7" height="20" rx="5" fill="#788486" fill-opacity="0.28" stroke="#788486" stroke-width="0.8" stroke-dasharray="4 2"/>
<rect x="606" y="187" width="3" height="20" rx="5" fill="#788486" fill-opacity="0.28" stroke="#788486" stroke-width="0.8" stroke-dasharray="4 2"/>
<rect x="503" y="187" width="19" height="20" rx="5" fill="#788486" fill-opacity="0.92" stroke="#333" stroke-width="0.8"/>
<rect x="606" y="187" width="6" height="20" rx="5" fill="#788486" fill-opacity="0.92" stroke="#333" stroke-width="0.8"/>
<rect x="20" y="214" width="248" height="30" rx="8" fill="#ffffff" stroke="#d9d9d0" stroke-width="1"/>
<rect x="28" y="223" width="10" height="10" rx="2" fill="#85c06e" stroke="#333" stroke-width="0.6"/>
<text x="44" y="230" font-family="monospace" font-size="12" fill="#111">PID 12 lockwork</text>
<text x="44" y="243" font-family="monospace" font-size="10" fill="#555">wait 328k hold 240k</text>
<rect x="503" y="221" width="19" height="20" rx="5" fill="#85c06e" fill-opacity="0.28" stroke="#85c06e" stroke-width="0.8" stroke-dasharray="4 2"/>
<rect x="721" y="221" width="16" height="20" rx="5" fill="#85c06e" fill-opacity="0.28" stroke="#85c06e" stroke-width="0.8" stroke-dasharray="4 2"/>
<rect x="522" y="221" width="19" height="20" rx="5" fill="#85c06e" fill-opacity="0.92" stroke="#333" stroke-width="0.8"/>
<rect x="737" y="221" width="6" height="20" rx="5" fill="#85c06e" fill-opacity="0.92" stroke="#333" stroke-width="0.8"/>
<rect x="20" y="248" width="248" height="30" rx="8" fill="#ffffff" stroke="#d9d9d0" stroke-width="1"/>
<rect x="28" y="257" width="10" height="10" rx="2" fill="#bb7b82" stroke="#333" stroke-width="0.6"/>
<text x="44" y="264" font-family="monospace" font-size="12" fill="#111">PID 10 lockwork</text>
<text x="44" y="277" font-family="monospace" font-size="10" fill="#555">wait 55k hold 180k</text>
<rect x="607" y="255" width="5" height="20" rx="5" fill="#bb7b82" fill-opacity="0.28" stroke="#bb7b82" stroke-width="0.8" stroke-dasharray="4 2"/>
<rect x="928" y="255" width="3" height="20" rx="5" fill="#bb7b82" fill-opacity="0.28" stroke="#bb7b82" stroke-width="0.8" stroke-dasharray="4 2"/>
<rect x="612" y="255" width="13" height="20" rx="5" fill="#bb7b82" fill-opacity="0.92" stroke="#333" stroke-width="0.8"/>
<rect x="928" y="255" width="6" height="20" rx="5" fill="#bb7b82" fill-opacity="0.92" stroke="#333" stroke-width="0.8"/>
<rect x="20" y="282" width="248" height="30" rx="8" fill="#ffffff" stroke="#d9d9d0" stroke-width="1"/>
<rect x="28" y="291" width="10" height="10" rx="2" fill="#85c475" stroke="#333" stroke-width="0.6"/>
<text x="44" y="298" font-family="monospace" font-size="12" fill="#111">PID 11 lockwork</text>
<text x="44" y="311" font-family="monospace" font-size="10" fill="#555">wait 78k hold 230k</text>
<rect x="712" y="289" width="9" height="20" rx="5" fill="#85c475" fill-opacity="0.28" stroke="#85c475" stroke-width="0.8" stroke-dasharray="4 2"/>
<rect x="823" y="289" width="3" height="20" rx="5" fill="#85c475" fill-opacity="0.28" stroke="#85c475" stroke-width="0.8" stroke-dasharray="4 2"/>
<rect x="721" y="289" width="16" height="20" rx="5" fill="#85c475" fill-opacity="0.92" stroke="#333" stroke-width="0.8"/>
<rect x="823" y="289" width="8" height="20" rx="5" fill="#85c475" fill-opacity="0.92" stroke="#333" stroke-width="0.8"/>
<rect x="20" y="316" width="248" height="30" rx="8" fill="#ffffff" stroke="#d9d9d0" stroke-width="1"/>
<rect x="28" y="325" width="10" height="10" rx="2" fill="#a0a387" stroke="#333" stroke-width="0.6"/>
<text x="44" y="332" font-family="monospace" font-size="12" fill="#111">PID 14 lockwork</text>
<text x="44" y="345" font-family="monospace" font-size="10" fill="#555">wait 178k hold 230k</text>
<rect x="737" y="323" width="6" height="20" rx="5" fill="#a0a387" fill-opacity="0.28" stroke="#a0a387" stroke-width="0.8" stroke-dasharray="4 2"/>
<rect x="934" y="323" width="13" height="20" rx="5" fill="#a0a387" fill-opacity="0.28" stroke="#a0a387" stroke-width="0.8" stroke-dasharray="4 2"/>
<rect x="743" y="323" width="16" height="20" rx="5" fill="#a0a387" fill-opacity="0.92" stroke="#333" stroke-width="0.8"/>
<rect x="947" y="323" width="9" height="20" rx="5" fill="#a0a387" fill-opacity="0.92" stroke="#333" stroke-width="0.8"/>
<rect x="20" y="350" width="248" height="30" rx="8" fill="#ffffff" stroke="#d9d9d0" stroke-width="1"/>
<rect x="28" y="359" width="10" height="10" rx="2" fill="#97b57c" stroke="#333" stroke-width="0.6"/>
<text x="44" y="366" font-family="monospace" font-size="12" fill="#111">PID 15 lockwork</text>
<text x="44" y="379" font-family="monospace" font-size="10" fill="#555">wait 71k hold 240k</text>
<rect x="824" y="357" width="7" height="20" rx="5" fill="#97b57c" fill-opacity="0.28" stroke="#97b57c" stroke-width="0.8" stroke-dasharray="4 2"/>
<rect x="1143" y="357" width="3" height="20" rx="5" fill="#97b57c" fill-opacity="0.28" stroke="#97b57c" stroke-width="0.8" stroke-dasharray="4 2"/>
<rect x="831" y="357" width="20" height="20" rx="5" fill="#97b57c" fill-opacity="0.92" stroke="#333" stroke-width="0.8"/>
<rect x="1143" y="357" width="6" height="20" rx="5" fill="#97b57c" fill-opacity="0.92" stroke="#333" stroke-width="0.8"/>
<rect x="20" y="384" width="248" height="30" rx="8" fill="#ffffff" stroke="#d9d9d0" stroke-width="1"/>
<rect x="28" y="393" width="10" height="10" rx="2" fill="#c79e84" stroke="#333" stroke-width="0.6"/>
<text x="44" y="400" font-family="monospace" font-size="12" fill="#111">PID 13 lockwork</text>
<text x="44" y="413" font-family="monospace" font-size="10" fill="#555">wait 59k hold 180k</text>
<rect x="928" y="391" width="6" height="20" rx="5" fill="#c79e84" fill-opacity="0.28" stroke="#c79e84" stroke-width="0.8" stroke-dasharray="4 2"/>
<rect x="1038" y="391" width="3" height="20" rx="5" fill="#c79e84" fill-opacity="0.28" stroke="#c79e84" stroke-width="0.8" stroke-dasharray="4 2"/>
<rect x="934" y="391" width="13" height="20" rx="5" fill="#c79e84" fill-opacity="0.92" stroke="#333" stroke-width="0.8"/>
<rect x="1038" y="391" width="6" height="20" rx="5" fill="#c79e84" fill-opacity="0.92" stroke="#333" stroke-width="0.8"/>
<rect x="20" y="418" width="248" height="30" rx="8" fill="#ffffff" stroke="#d9d9d0" stroke-width="1"/>
<rect x="28" y="427" width="10" height="10" rx="2" fill="#837ec7" stroke="#333" stroke-width="0.6"/>
<text x="44" y="434" font-family="monospace" font-size="12" fill="#111">PID 16 lockwork</text>
<text x="44" y="447" font-family="monospace" font-size="10" fill="#555">wait 138k hold 180k</text>
<rect x="947" y="425" width="9" height="20" rx="5" fill="#837ec7" fill-opacity="0.28" stroke="#837ec7" stroke-width="0.8" stroke-dasharray="4 2"/>
<rect x="1143" y="425" width="6" height="20" rx="5" fill="#837ec7" fill-opacity="0.28" stroke="#837ec7" stroke-width="0.8" stroke-dasharray="4 2"/>
<rect x="956" y="425" width="12" height="20" rx="5" fill="#837ec7" fill-opacity="0.92" stroke="#333" stroke-width="0.8"/>
<rect x="1149" y="425" width="7" height="20" rx="5" fill="#837ec7" fill-opacity="0.92" stroke="#333" stroke-width="0.8"/>
<rect x="20" y="452" width="248" height="30" rx="8" fill="#ffffff" stroke="#d9d9d0" stroke-width="1"/>
<rect x="28" y="461" width="10" height="10" rx="2" fill="#75847f" stroke="#333" stroke-width="0.6"/>
<text x="44" y="468" font-family="monospace" font-size="12" fill="#111">PID 17 lockwork</text>
<text x="44" y="481" font-family="monospace" font-size="10" fill="#555">wait 54k hold 230k</text>
<rect x="1038" y="459" width="6" height="20" rx="5" fill="#75847f" fill-opacity="0.28" stroke="#75847f" stroke-width="0.8" stroke-dasharray="4 2"/>
<rect x="1359" y="459" width="3" height="20" rx="5" fill="#75847f" fill-opacity="0.28" stroke="#75847f" stroke-width="0.8" stroke-dasharray="4 2"/>
<rect x="1044" y="459" width="16" height="20" rx="5" fill="#75847f" fill-opacity="0.92" stroke="#333" stroke-width="0.8"/>
<rect x="1359" y="459" width="8" height="20" rx="5" fill="#75847f" fill-opacity="0.92" stroke="#333" stroke-width="0.8"/>
<rect x="20" y="486" width="248" height="30" rx="8" fill="#ffffff" stroke="#d9d9d0" stroke-width="1"/>
<rect x="28" y="495" width="10" height="10" rx="2" fill="#a874c3" stroke="#333" stroke-width="0.6"/>
<text x="44" y="502" font-family="monospace" font-size="12" fill="#111">PID 18 lockwork</text>
<text x="44" y="515" font-family="monospace" font-size="10" fill="#555">wait 58k hold 240k</text>
<rect x="1149" y="493" width="7" height="20" rx="5" fill="#a874c3" fill-opacity="0.28" stroke="#a874c3" stroke-width="0.8" stroke-dasharray="4 2"/>
<rect x="1252" y="493" width="3" height="20" rx="5" fill="#a874c3" fill-opacity="0.28" stroke="#a874c3" stroke-width="0.8" stroke-dasharray="4 2"/>
<rect x="1156" y="493" width="19" height="20" rx="5" fill="#a874c3" fill-opacity="0.92" stroke="#333" stroke-width="0.8"/>
<rect x="1252" y="493" width="7" height="20" rx="5" fill="#a874c3" fill-opacity="0.92" stroke="#333" stroke-width="0.8"/>
<rect x="20" y="520" width="248" height="30" rx="8" fill="#ffffff" stroke="#d9d9d0" stroke-width="1"/>
<rect x="28" y="529" width="10" height="10" rx="2" fill="#b59975" stroke="#333" stroke-width="0.6"/>
<text x="44" y="536" font-family="monospace" font-size="12" fill="#111">PID 21 lockwork</text>
<text x="44" y="549" font-family="monospace" font-size="10" fill="#555">wait 327k hold 240k</text>
<rect x="1156" y="527" width="19" height="20" rx="5" fill="#b59975" fill-opacity="0.28" stroke="#b59975" stroke-width="0.8" stroke-dasharray="4 2"/>
<rect x="1367" y="527" width="16" height="20" rx="5" fill="#b59975" fill-opacity="0.28" stroke="#b59975" stroke-width="0.8" stroke-dasharray="4 2"/>
<rect x="1175" y="527" width="19" height="20" rx="5" fill="#b59975" fill-opacity="0.92" stroke="#333" stroke-width="0.8"/>
<rect x="1383" y="527" width="7" height="20" rx="5" fill="#b59975" fill-opacity="0.92" stroke="#333" stroke-width="0.8"/>
<rect x="20" y="554" width="248" height="30" rx="8" fill="#ffffff" stroke="#d9d9d0" stroke-width="1"/>
<rect x="28" y="563" width="10" height="10" rx="2" fill="#bd96d1" stroke="#333" stroke-width="0.6"/>
<text x="44" y="570" font-family="monospace" font-size="12" fill="#111">PID 19 lockwork</text>
<text x="44" y="583" font-family="monospace" font-size="10" fill="#555">wait 60k hold 180k</text>
<rect x="1252" y="561" width="7" height="20" rx="5" fill="#bd96d1" fill-opacity="0.28" stroke="#bd96d1" stroke-width="0.8" stroke-dasharray="4 2"/>
<rect x="1573" y="561" width="3" height="20" rx="5" fill="#bd96d1" fill-opacity="0.28" stroke="#bd96d1" stroke-width="0.8" stroke-dasharray="4 2"/>
<rect x="1259" y="561" width="13" height="20" rx="5" fill="#bd96d1" fill-opacity="0.92" stroke="#333" stroke-width="0.8"/>
<rect x="1573" y="561" width="7" height="20" rx="5" fill="#bd96d1" fill-opacity="0.92" stroke="#333" stroke-width="0.8"/>
<rect x="20" y="588" width="248" height="30" rx="8" fill="#ffffff" stroke="#d9d9d0" stroke-width="1"/>
<rect x="28" y="597" width="10" height="10" rx="2" fill="#9b7198" stroke="#333" stroke-width="0.6"/>
<text x="44" y="604" font-family="monospace" font-size="12" fill="#111">PID 20 lockwork</text>
<text x="44" y="617" font-family="monospace" font-size="10" fill="#555">wait 79k hold 230k</text>
<rect x="1359" y="595" width="8" height="20" rx="5" fill="#9b7198" fill-opacity="0.28" stroke="#9b7198" stroke-width="0.8" stroke-dasharray="4 2"/>
<rect x="1467" y="595" width="3" height="20" rx="5" fill="#9b7198" fill-opacity="0.28" stroke="#9b7198" stroke-width="0.8" stroke-dasharray="4 2"/>
<rect x="1367" y="595" width="16" height="20" rx="5" fill="#9b7198" fill-opacity="0.92" stroke="#333" stroke-width="0.8"/>
<rect x="1467" y="595" width="9" height="20" rx="5" fill="#9b7198" fill-opacity="0.92" stroke="#333" stroke-width="0.8"/>
<text x="20" y="702" font-family="monospace" font-size="11" fill="#555">dashed bars show time spent waiting for the lock; solid bars show the critical section itself</text>
</svg>